<mxfile host="app.diagrams.net" agent="Mozilla/5.0 (Macintosh; Intel Mac OS X 10_15_7) AppleWebKit/605.1.15 (KHTML, like Gecko) Version/18.0.1 Safari/605.1.15" version="24.8.3">
  <diagram id="C5RBs43oDa-KdzZeNtuy" name="Page-1">
    <mxGraphModel dx="4767" dy="2180" grid="1" gridSize="10" guides="1" tooltips="1" connect="1" arrows="1" fold="1" page="1" pageScale="1" pageWidth="827" pageHeight="1169" math="0" shadow="0">
      <root>
        <mxCell id="WIyWlLk6GJQsqaUBKTNV-0" />
        <mxCell id="WIyWlLk6GJQsqaUBKTNV-1" parent="WIyWlLk6GJQsqaUBKTNV-0" />
        <mxCell id="xpAPB1XYYAG37ajHW2r_-126" value="" style="edgeStyle=orthogonalEdgeStyle;rounded=0;orthogonalLoop=1;jettySize=auto;html=1;" parent="WIyWlLk6GJQsqaUBKTNV-1" source="xpAPB1XYYAG37ajHW2r_-9" target="xpAPB1XYYAG37ajHW2r_-66" edge="1">
          <mxGeometry relative="1" as="geometry" />
        </mxCell>
        <mxCell id="xpAPB1XYYAG37ajHW2r_-9" value="게임 시작" style="ellipse;whiteSpace=wrap;html=1;" parent="WIyWlLk6GJQsqaUBKTNV-1" vertex="1">
          <mxGeometry x="-560" width="120" height="80" as="geometry" />
        </mxCell>
        <mxCell id="xpAPB1XYYAG37ajHW2r_-71" value="" style="edgeStyle=orthogonalEdgeStyle;rounded=0;orthogonalLoop=1;jettySize=auto;html=1;" parent="WIyWlLk6GJQsqaUBKTNV-1" source="xpAPB1XYYAG37ajHW2r_-66" target="xpAPB1XYYAG37ajHW2r_-68" edge="1">
          <mxGeometry relative="1" as="geometry" />
        </mxCell>
        <mxCell id="xpAPB1XYYAG37ajHW2r_-66" value="&lt;div&gt;이리역사감독관&amp;nbsp;&lt;/div&gt;&lt;div&gt;자리 제안이 들어옴&lt;/div&gt;" style="rounded=0;whiteSpace=wrap;html=1;" parent="WIyWlLk6GJQsqaUBKTNV-1" vertex="1">
          <mxGeometry x="-560" y="140" width="120" height="60" as="geometry" />
        </mxCell>
        <mxCell id="xpAPB1XYYAG37ajHW2r_-131" value="" style="edgeStyle=orthogonalEdgeStyle;rounded=0;orthogonalLoop=1;jettySize=auto;html=1;" parent="WIyWlLk6GJQsqaUBKTNV-1" source="xpAPB1XYYAG37ajHW2r_-67" target="xpAPB1XYYAG37ajHW2r_-130" edge="1">
          <mxGeometry relative="1" as="geometry" />
        </mxCell>
        <mxCell id="xpAPB1XYYAG37ajHW2r_-67" value="이리역사감독관 부임" style="rounded=0;whiteSpace=wrap;html=1;" parent="WIyWlLk6GJQsqaUBKTNV-1" vertex="1">
          <mxGeometry x="-560" y="410" width="120" height="60" as="geometry" />
        </mxCell>
        <mxCell id="xpAPB1XYYAG37ajHW2r_-70" value="" style="edgeStyle=orthogonalEdgeStyle;rounded=0;orthogonalLoop=1;jettySize=auto;html=1;" parent="WIyWlLk6GJQsqaUBKTNV-1" source="xpAPB1XYYAG37ajHW2r_-68" target="xpAPB1XYYAG37ajHW2r_-67" edge="1">
          <mxGeometry relative="1" as="geometry" />
        </mxCell>
        <mxCell id="xpAPB1XYYAG37ajHW2r_-72" value="" style="edgeStyle=orthogonalEdgeStyle;rounded=0;orthogonalLoop=1;jettySize=auto;html=1;" parent="WIyWlLk6GJQsqaUBKTNV-1" source="xpAPB1XYYAG37ajHW2r_-68" target="xpAPB1XYYAG37ajHW2r_-69" edge="1">
          <mxGeometry relative="1" as="geometry" />
        </mxCell>
        <mxCell id="xpAPB1XYYAG37ajHW2r_-68" value="&lt;div&gt;이리역&amp;nbsp;&lt;/div&gt;&lt;div&gt;역사감독관 자리를&amp;nbsp;&lt;/div&gt;&lt;div&gt;받아들였는가?&lt;/div&gt;" style="rhombus;whiteSpace=wrap;html=1;shadow=0;fontFamily=Helvetica;fontSize=12;align=center;strokeWidth=1;spacing=6;spacingTop=-4;" parent="WIyWlLk6GJQsqaUBKTNV-1" vertex="1">
          <mxGeometry x="-580" y="240" width="160" height="120" as="geometry" />
        </mxCell>
        <mxCell id="xpAPB1XYYAG37ajHW2r_-69" value="엔딩: &quot;수용소 직원&quot;" style="ellipse;whiteSpace=wrap;html=1;" parent="WIyWlLk6GJQsqaUBKTNV-1" vertex="1">
          <mxGeometry x="-360" y="260" width="120" height="80" as="geometry" />
        </mxCell>
        <mxCell id="xpAPB1XYYAG37ajHW2r_-79" value="" style="edgeStyle=orthogonalEdgeStyle;rounded=0;orthogonalLoop=1;jettySize=auto;html=1;" parent="WIyWlLk6GJQsqaUBKTNV-1" source="xpAPB1XYYAG37ajHW2r_-73" target="xpAPB1XYYAG37ajHW2r_-78" edge="1">
          <mxGeometry relative="1" as="geometry" />
        </mxCell>
        <mxCell id="xpAPB1XYYAG37ajHW2r_-73" value="신대부와 접촉" style="rounded=0;whiteSpace=wrap;html=1;" parent="WIyWlLk6GJQsqaUBKTNV-1" vertex="1">
          <mxGeometry x="190" y="165" width="120" height="60" as="geometry" />
        </mxCell>
        <mxCell id="C3fp1-QE952OWo8Mgcm4-14" value="" style="edgeStyle=none;curved=1;rounded=0;orthogonalLoop=1;jettySize=auto;html=1;fontSize=12;startSize=8;endSize=8;" edge="1" parent="WIyWlLk6GJQsqaUBKTNV-1" source="xpAPB1XYYAG37ajHW2r_-78" target="C3fp1-QE952OWo8Mgcm4-13">
          <mxGeometry relative="1" as="geometry" />
        </mxCell>
        <mxCell id="C3fp1-QE952OWo8Mgcm4-26" value="" style="edgeStyle=none;curved=1;rounded=0;orthogonalLoop=1;jettySize=auto;html=1;fontSize=12;startSize=8;endSize=8;" edge="1" parent="WIyWlLk6GJQsqaUBKTNV-1" source="xpAPB1XYYAG37ajHW2r_-78" target="C3fp1-QE952OWo8Mgcm4-25">
          <mxGeometry relative="1" as="geometry" />
        </mxCell>
        <mxCell id="xpAPB1XYYAG37ajHW2r_-78" value="신대부 임무를&lt;div&gt;&amp;nbsp;수락했는가?&lt;/div&gt;" style="rhombus;whiteSpace=wrap;html=1;rounded=0;" parent="WIyWlLk6GJQsqaUBKTNV-1" vertex="1">
          <mxGeometry x="183" y="270" width="134" height="120" as="geometry" />
        </mxCell>
        <mxCell id="xpAPB1XYYAG37ajHW2r_-82" value="&#xa;엔딩: &quot;조국과 민족의 무궁한 영광을 위하여&quot;&#xa;&#xa;" style="ellipse;whiteSpace=wrap;html=1;" parent="WIyWlLk6GJQsqaUBKTNV-1" vertex="1">
          <mxGeometry x="1210" y="130" width="120" height="80" as="geometry" />
        </mxCell>
        <mxCell id="xpAPB1XYYAG37ajHW2r_-83" value="&#xa;엔딩: &quot;대한&quot; (노멀)&#xa;&#xa;" style="ellipse;whiteSpace=wrap;html=1;" parent="WIyWlLk6GJQsqaUBKTNV-1" vertex="1">
          <mxGeometry x="1040" y="140" width="120" height="80" as="geometry" />
        </mxCell>
        <mxCell id="xpAPB1XYYAG37ajHW2r_-113" value="" style="edgeStyle=orthogonalEdgeStyle;rounded=0;orthogonalLoop=1;jettySize=auto;html=1;" parent="WIyWlLk6GJQsqaUBKTNV-1" source="xpAPB1XYYAG37ajHW2r_-97" target="xpAPB1XYYAG37ajHW2r_-112" edge="1">
          <mxGeometry relative="1" as="geometry" />
        </mxCell>
        <mxCell id="C3fp1-QE952OWo8Mgcm4-30" value="" style="edgeStyle=none;curved=1;rounded=0;orthogonalLoop=1;jettySize=auto;html=1;fontSize=12;startSize=8;endSize=8;" edge="1" parent="WIyWlLk6GJQsqaUBKTNV-1" source="xpAPB1XYYAG37ajHW2r_-97" target="xpAPB1XYYAG37ajHW2r_-118">
          <mxGeometry relative="1" as="geometry" />
        </mxCell>
        <mxCell id="xpAPB1XYYAG37ajHW2r_-97" value="신대부 상징물을&amp;nbsp;&lt;div&gt;상부에 보고했는가?&lt;/div&gt;" style="rhombus;whiteSpace=wrap;html=1;" parent="WIyWlLk6GJQsqaUBKTNV-1" vertex="1">
          <mxGeometry x="450" y="462.5" width="130" height="130" as="geometry" />
        </mxCell>
        <mxCell id="xpAPB1XYYAG37ajHW2r_-115" value="" style="edgeStyle=orthogonalEdgeStyle;rounded=0;orthogonalLoop=1;jettySize=auto;html=1;" parent="WIyWlLk6GJQsqaUBKTNV-1" source="xpAPB1XYYAG37ajHW2r_-112" target="xpAPB1XYYAG37ajHW2r_-114" edge="1">
          <mxGeometry relative="1" as="geometry" />
        </mxCell>
        <mxCell id="lmIBSXrSa7h9T7CSioTr-1" style="edgeStyle=orthogonalEdgeStyle;rounded=0;orthogonalLoop=1;jettySize=auto;html=1;exitX=1;exitY=0.5;exitDx=0;exitDy=0;" parent="WIyWlLk6GJQsqaUBKTNV-1" source="xpAPB1XYYAG37ajHW2r_-112" target="xpAPB1XYYAG37ajHW2r_-116" edge="1">
          <mxGeometry relative="1" as="geometry" />
        </mxCell>
        <mxCell id="xpAPB1XYYAG37ajHW2r_-112" value="신대부의&amp;nbsp;&lt;div&gt;열차 폭발 테러 계획에&amp;nbsp;&lt;/div&gt;&lt;div&gt;협조하는가?&lt;/div&gt;" style="rhombus;whiteSpace=wrap;html=1;" parent="WIyWlLk6GJQsqaUBKTNV-1" vertex="1">
          <mxGeometry x="700" y="465" width="170" height="125" as="geometry" />
        </mxCell>
        <mxCell id="xpAPB1XYYAG37ajHW2r_-114" value="엔딩: &quot;무능한 요원&quot;" style="ellipse;whiteSpace=wrap;html=1;" parent="WIyWlLk6GJQsqaUBKTNV-1" vertex="1">
          <mxGeometry x="725" y="728" width="120" height="80" as="geometry" />
        </mxCell>
        <mxCell id="xpAPB1XYYAG37ajHW2r_-116" value="엔딩: &quot;겁쟁이&quot;" style="ellipse;whiteSpace=wrap;html=1;" parent="WIyWlLk6GJQsqaUBKTNV-1" vertex="1">
          <mxGeometry x="980" y="487.5" width="120" height="80" as="geometry" />
        </mxCell>
        <mxCell id="xpAPB1XYYAG37ajHW2r_-121" value="" style="edgeStyle=orthogonalEdgeStyle;rounded=0;orthogonalLoop=1;jettySize=auto;html=1;" parent="WIyWlLk6GJQsqaUBKTNV-1" source="xpAPB1XYYAG37ajHW2r_-118" target="xpAPB1XYYAG37ajHW2r_-120" edge="1">
          <mxGeometry relative="1" as="geometry" />
        </mxCell>
        <mxCell id="xpAPB1XYYAG37ajHW2r_-118" value="보안법 위반 벌금 징수" style="whiteSpace=wrap;html=1;" parent="WIyWlLk6GJQsqaUBKTNV-1" vertex="1">
          <mxGeometry x="455" y="700" width="120" height="60" as="geometry" />
        </mxCell>
        <mxCell id="xpAPB1XYYAG37ajHW2r_-120" value="(가정)" style="shape=process;whiteSpace=wrap;html=1;backgroundOutline=1;" parent="WIyWlLk6GJQsqaUBKTNV-1" vertex="1">
          <mxGeometry x="455" y="858" width="120" height="60" as="geometry" />
        </mxCell>
        <mxCell id="xpAPB1XYYAG37ajHW2r_-124" value="엔딩: &quot;박쥐&quot;" style="ellipse;whiteSpace=wrap;html=1;" parent="WIyWlLk6GJQsqaUBKTNV-1" vertex="1">
          <mxGeometry x="190" y="1280" width="120" height="80" as="geometry" />
        </mxCell>
        <mxCell id="xpAPB1XYYAG37ajHW2r_-127" value="(가정)" style="shape=process;whiteSpace=wrap;html=1;backgroundOutline=1;" parent="WIyWlLk6GJQsqaUBKTNV-1" vertex="1">
          <mxGeometry x="870" y="30" width="120" height="60" as="geometry" />
        </mxCell>
        <mxCell id="xpAPB1XYYAG37ajHW2r_-167" value="" style="edgeStyle=orthogonalEdgeStyle;rounded=0;orthogonalLoop=1;jettySize=auto;html=1;" parent="WIyWlLk6GJQsqaUBKTNV-1" source="xpAPB1XYYAG37ajHW2r_-130" target="xpAPB1XYYAG37ajHW2r_-134" edge="1">
          <mxGeometry relative="1" as="geometry" />
        </mxCell>
        <mxCell id="xpAPB1XYYAG37ajHW2r_-130" value="출근" style="whiteSpace=wrap;html=1;rounded=0;" parent="WIyWlLk6GJQsqaUBKTNV-1" vertex="1">
          <mxGeometry x="-560" y="510" width="120" height="60" as="geometry" />
        </mxCell>
        <mxCell id="xpAPB1XYYAG37ajHW2r_-166" value="" style="edgeStyle=orthogonalEdgeStyle;rounded=0;orthogonalLoop=1;jettySize=auto;html=1;" parent="WIyWlLk6GJQsqaUBKTNV-1" source="xpAPB1XYYAG37ajHW2r_-134" target="xpAPB1XYYAG37ajHW2r_-136" edge="1">
          <mxGeometry relative="1" as="geometry" />
        </mxCell>
        <mxCell id="xpAPB1XYYAG37ajHW2r_-134" value="신문 배달" style="whiteSpace=wrap;html=1;rounded=0;" parent="WIyWlLk6GJQsqaUBKTNV-1" vertex="1">
          <mxGeometry x="-560" y="630" width="120" height="60" as="geometry" />
        </mxCell>
        <mxCell id="xpAPB1XYYAG37ajHW2r_-212" value="" style="edgeStyle=orthogonalEdgeStyle;rounded=0;orthogonalLoop=1;jettySize=auto;html=1;" parent="WIyWlLk6GJQsqaUBKTNV-1" source="xpAPB1XYYAG37ajHW2r_-136" target="xpAPB1XYYAG37ajHW2r_-192" edge="1">
          <mxGeometry relative="1" as="geometry" />
        </mxCell>
        <mxCell id="xpAPB1XYYAG37ajHW2r_-136" value="지시 사항 하달" style="whiteSpace=wrap;html=1;rounded=0;" parent="WIyWlLk6GJQsqaUBKTNV-1" vertex="1">
          <mxGeometry x="-560" y="760" width="120" height="60" as="geometry" />
        </mxCell>
        <mxCell id="xpAPB1XYYAG37ajHW2r_-158" value="" style="edgeStyle=orthogonalEdgeStyle;rounded=0;orthogonalLoop=1;jettySize=auto;html=1;" parent="WIyWlLk6GJQsqaUBKTNV-1" source="xpAPB1XYYAG37ajHW2r_-154" target="xpAPB1XYYAG37ajHW2r_-157" edge="1">
          <mxGeometry relative="1" as="geometry" />
        </mxCell>
        <mxCell id="xpAPB1XYYAG37ajHW2r_-154" value="퇴근" style="whiteSpace=wrap;html=1;rounded=0;" parent="WIyWlLk6GJQsqaUBKTNV-1" vertex="1">
          <mxGeometry x="-820" y="1030" width="120" height="60" as="geometry" />
        </mxCell>
        <mxCell id="xpAPB1XYYAG37ajHW2r_-157" value="(가정)" style="shape=process;whiteSpace=wrap;html=1;backgroundOutline=1;" parent="WIyWlLk6GJQsqaUBKTNV-1" vertex="1">
          <mxGeometry x="-820" y="1160" width="120" height="60" as="geometry" />
        </mxCell>
        <mxCell id="xpAPB1XYYAG37ajHW2r_-183" value="" style="edgeStyle=orthogonalEdgeStyle;rounded=0;orthogonalLoop=1;jettySize=auto;html=1;" parent="WIyWlLk6GJQsqaUBKTNV-1" source="xpAPB1XYYAG37ajHW2r_-178" target="xpAPB1XYYAG37ajHW2r_-182" edge="1">
          <mxGeometry relative="1" as="geometry" />
        </mxCell>
        <mxCell id="xpAPB1XYYAG37ajHW2r_-178" value="불시 검문 수색" style="whiteSpace=wrap;html=1;rounded=0;" parent="WIyWlLk6GJQsqaUBKTNV-1" vertex="1">
          <mxGeometry x="-1425" y="590" width="120" height="60" as="geometry" />
        </mxCell>
        <mxCell id="xpAPB1XYYAG37ajHW2r_-187" value="" style="edgeStyle=orthogonalEdgeStyle;rounded=0;orthogonalLoop=1;jettySize=auto;html=1;" parent="WIyWlLk6GJQsqaUBKTNV-1" source="xpAPB1XYYAG37ajHW2r_-182" target="xpAPB1XYYAG37ajHW2r_-186" edge="1">
          <mxGeometry relative="1" as="geometry" />
        </mxCell>
        <mxCell id="xpAPB1XYYAG37ajHW2r_-298" value="" style="edgeStyle=orthogonalEdgeStyle;rounded=0;orthogonalLoop=1;jettySize=auto;html=1;" parent="WIyWlLk6GJQsqaUBKTNV-1" source="xpAPB1XYYAG37ajHW2r_-182" target="xpAPB1XYYAG37ajHW2r_-285" edge="1">
          <mxGeometry relative="1" as="geometry" />
        </mxCell>
        <mxCell id="xpAPB1XYYAG37ajHW2r_-182" value="&lt;div&gt;수상자를&amp;nbsp;&lt;/div&gt;&lt;div&gt;발견했는가?&lt;/div&gt;" style="rhombus;whiteSpace=wrap;html=1;rounded=0;" parent="WIyWlLk6GJQsqaUBKTNV-1" vertex="1">
          <mxGeometry x="-1425" y="705" width="120" height="110" as="geometry" />
        </mxCell>
        <mxCell id="xpAPB1XYYAG37ajHW2r_-208" style="edgeStyle=orthogonalEdgeStyle;rounded=0;orthogonalLoop=1;jettySize=auto;html=1;exitX=0.5;exitY=0;exitDx=0;exitDy=0;entryX=0.5;entryY=1;entryDx=0;entryDy=0;" parent="WIyWlLk6GJQsqaUBKTNV-1" source="xpAPB1XYYAG37ajHW2r_-186" target="xpAPB1XYYAG37ajHW2r_-206" edge="1">
          <mxGeometry relative="1" as="geometry" />
        </mxCell>
        <mxCell id="xpAPB1XYYAG37ajHW2r_-186" value="검문 종결" style="whiteSpace=wrap;html=1;rounded=0;" parent="WIyWlLk6GJQsqaUBKTNV-1" vertex="1">
          <mxGeometry x="-1225" y="730" width="120" height="60" as="geometry" />
        </mxCell>
        <mxCell id="xpAPB1XYYAG37ajHW2r_-245" value="" style="edgeStyle=orthogonalEdgeStyle;rounded=0;orthogonalLoop=1;jettySize=auto;html=1;" parent="WIyWlLk6GJQsqaUBKTNV-1" source="xpAPB1XYYAG37ajHW2r_-192" target="xpAPB1XYYAG37ajHW2r_-210" edge="1">
          <mxGeometry relative="1" as="geometry" />
        </mxCell>
        <mxCell id="xpAPB1XYYAG37ajHW2r_-192" value="(반복)" style="ellipse;whiteSpace=wrap;html=1;aspect=fixed;" parent="WIyWlLk6GJQsqaUBKTNV-1" vertex="1">
          <mxGeometry x="-540" y="870" width="80" height="80" as="geometry" />
        </mxCell>
        <mxCell id="xpAPB1XYYAG37ajHW2r_-323" style="edgeStyle=orthogonalEdgeStyle;rounded=0;orthogonalLoop=1;jettySize=auto;html=1;exitX=0.5;exitY=0;exitDx=0;exitDy=0;entryX=1;entryY=0.5;entryDx=0;entryDy=0;" parent="WIyWlLk6GJQsqaUBKTNV-1" source="xpAPB1XYYAG37ajHW2r_-206" target="xpAPB1XYYAG37ajHW2r_-256" edge="1">
          <mxGeometry relative="1" as="geometry" />
        </mxCell>
        <mxCell id="xpAPB1XYYAG37ajHW2r_-206" value="열차 통과" style="whiteSpace=wrap;html=1;rounded=0;" parent="WIyWlLk6GJQsqaUBKTNV-1" vertex="1">
          <mxGeometry x="-1225" y="280" width="120" height="60" as="geometry" />
        </mxCell>
        <mxCell id="xpAPB1XYYAG37ajHW2r_-244" value="" style="edgeStyle=orthogonalEdgeStyle;rounded=0;orthogonalLoop=1;jettySize=auto;html=1;" parent="WIyWlLk6GJQsqaUBKTNV-1" source="xpAPB1XYYAG37ajHW2r_-210" target="xpAPB1XYYAG37ajHW2r_-154" edge="1">
          <mxGeometry relative="1" as="geometry" />
        </mxCell>
        <mxCell id="xpAPB1XYYAG37ajHW2r_-249" value="" style="edgeStyle=orthogonalEdgeStyle;rounded=0;orthogonalLoop=1;jettySize=auto;html=1;" parent="WIyWlLk6GJQsqaUBKTNV-1" source="xpAPB1XYYAG37ajHW2r_-210" target="xpAPB1XYYAG37ajHW2r_-248" edge="1">
          <mxGeometry relative="1" as="geometry" />
        </mxCell>
        <mxCell id="xpAPB1XYYAG37ajHW2r_-210" value="근무시간이 지났는가?" style="rhombus;whiteSpace=wrap;html=1;rounded=0;" parent="WIyWlLk6GJQsqaUBKTNV-1" vertex="1">
          <mxGeometry x="-575" y="1000" width="150" height="120" as="geometry" />
        </mxCell>
        <mxCell id="xpAPB1XYYAG37ajHW2r_-220" value="" style="edgeStyle=orthogonalEdgeStyle;rounded=0;orthogonalLoop=1;jettySize=auto;html=1;" parent="WIyWlLk6GJQsqaUBKTNV-1" target="xpAPB1XYYAG37ajHW2r_-73" edge="1">
          <mxGeometry relative="1" as="geometry">
            <mxPoint x="250" y="95" as="sourcePoint" />
          </mxGeometry>
        </mxCell>
        <mxCell id="xpAPB1XYYAG37ajHW2r_-252" value="" style="edgeStyle=orthogonalEdgeStyle;rounded=0;orthogonalLoop=1;jettySize=auto;html=1;" parent="WIyWlLk6GJQsqaUBKTNV-1" source="xpAPB1XYYAG37ajHW2r_-225" target="xpAPB1XYYAG37ajHW2r_-230" edge="1">
          <mxGeometry relative="1" as="geometry" />
        </mxCell>
        <mxCell id="xpAPB1XYYAG37ajHW2r_-264" value="" style="edgeStyle=orthogonalEdgeStyle;rounded=0;orthogonalLoop=1;jettySize=auto;html=1;" parent="WIyWlLk6GJQsqaUBKTNV-1" source="xpAPB1XYYAG37ajHW2r_-225" target="xpAPB1XYYAG37ajHW2r_-263" edge="1">
          <mxGeometry relative="1" as="geometry" />
        </mxCell>
        <mxCell id="xpAPB1XYYAG37ajHW2r_-225" value="&lt;div&gt;서브 이벤트가&lt;/div&gt;&lt;div&gt;발생했는가?&lt;/div&gt;" style="rhombus;whiteSpace=wrap;html=1;rounded=0;" parent="WIyWlLk6GJQsqaUBKTNV-1" vertex="1">
          <mxGeometry x="-570" y="1330" width="140" height="120" as="geometry" />
        </mxCell>
        <mxCell id="xpAPB1XYYAG37ajHW2r_-309" style="edgeStyle=orthogonalEdgeStyle;rounded=0;orthogonalLoop=1;jettySize=auto;html=1;exitX=0;exitY=0.5;exitDx=0;exitDy=0;entryX=0;entryY=0.5;entryDx=0;entryDy=0;" parent="WIyWlLk6GJQsqaUBKTNV-1" source="xpAPB1XYYAG37ajHW2r_-230" target="xpAPB1XYYAG37ajHW2r_-248" edge="1">
          <mxGeometry relative="1" as="geometry">
            <Array as="points">
              <mxPoint x="-640" y="1590" />
              <mxPoint x="-640" y="1230" />
            </Array>
          </mxGeometry>
        </mxCell>
        <mxCell id="xpAPB1XYYAG37ajHW2r_-230" value="(서브 이벤트)" style="shape=process;whiteSpace=wrap;html=1;backgroundOutline=1;" parent="WIyWlLk6GJQsqaUBKTNV-1" vertex="1">
          <mxGeometry x="-560" y="1560" width="120" height="60" as="geometry" />
        </mxCell>
        <mxCell id="xpAPB1XYYAG37ajHW2r_-235" style="edgeStyle=orthogonalEdgeStyle;rounded=0;orthogonalLoop=1;jettySize=auto;html=1;exitX=1;exitY=0.5;exitDx=0;exitDy=0;entryX=0;entryY=0.5;entryDx=0;entryDy=0;" parent="WIyWlLk6GJQsqaUBKTNV-1" source="xpAPB1XYYAG37ajHW2r_-234" target="xpAPB1XYYAG37ajHW2r_-206" edge="1">
          <mxGeometry relative="1" as="geometry" />
        </mxCell>
        <mxCell id="xpAPB1XYYAG37ajHW2r_-237" value="" style="edgeStyle=orthogonalEdgeStyle;rounded=0;orthogonalLoop=1;jettySize=auto;html=1;" parent="WIyWlLk6GJQsqaUBKTNV-1" source="xpAPB1XYYAG37ajHW2r_-234" target="xpAPB1XYYAG37ajHW2r_-236" edge="1">
          <mxGeometry relative="1" as="geometry" />
        </mxCell>
        <mxCell id="xpAPB1XYYAG37ajHW2r_-234" value="&lt;div&gt;불시 검문이&amp;nbsp;&lt;/div&gt;&lt;div&gt;필요한가?&lt;/div&gt;" style="rhombus;whiteSpace=wrap;html=1;rounded=0;" parent="WIyWlLk6GJQsqaUBKTNV-1" vertex="1">
          <mxGeometry x="-1430" y="255" width="130" height="110" as="geometry" />
        </mxCell>
        <mxCell id="xpAPB1XYYAG37ajHW2r_-238" style="edgeStyle=orthogonalEdgeStyle;rounded=0;orthogonalLoop=1;jettySize=auto;html=1;exitX=0.5;exitY=1;exitDx=0;exitDy=0;entryX=0.5;entryY=0;entryDx=0;entryDy=0;" parent="WIyWlLk6GJQsqaUBKTNV-1" source="xpAPB1XYYAG37ajHW2r_-236" target="xpAPB1XYYAG37ajHW2r_-178" edge="1">
          <mxGeometry relative="1" as="geometry" />
        </mxCell>
        <mxCell id="xpAPB1XYYAG37ajHW2r_-236" value="열차 정지" style="whiteSpace=wrap;html=1;rounded=0;" parent="WIyWlLk6GJQsqaUBKTNV-1" vertex="1">
          <mxGeometry x="-1425" y="460" width="120" height="60" as="geometry" />
        </mxCell>
        <mxCell id="xpAPB1XYYAG37ajHW2r_-257" style="edgeStyle=orthogonalEdgeStyle;rounded=0;orthogonalLoop=1;jettySize=auto;html=1;exitX=0.5;exitY=1;exitDx=0;exitDy=0;entryX=0.5;entryY=0;entryDx=0;entryDy=0;" parent="WIyWlLk6GJQsqaUBKTNV-1" source="xpAPB1XYYAG37ajHW2r_-248" target="xpAPB1XYYAG37ajHW2r_-225" edge="1">
          <mxGeometry relative="1" as="geometry" />
        </mxCell>
        <mxCell id="xpAPB1XYYAG37ajHW2r_-248" value="시간 흐름" style="whiteSpace=wrap;html=1;rounded=0;" parent="WIyWlLk6GJQsqaUBKTNV-1" vertex="1">
          <mxGeometry x="-560" y="1200" width="120" height="60" as="geometry" />
        </mxCell>
        <mxCell id="xpAPB1XYYAG37ajHW2r_-259" style="edgeStyle=orthogonalEdgeStyle;rounded=0;orthogonalLoop=1;jettySize=auto;html=1;exitX=0.5;exitY=1;exitDx=0;exitDy=0;entryX=0.5;entryY=0;entryDx=0;entryDy=0;" parent="WIyWlLk6GJQsqaUBKTNV-1" source="xpAPB1XYYAG37ajHW2r_-256" target="xpAPB1XYYAG37ajHW2r_-234" edge="1">
          <mxGeometry relative="1" as="geometry" />
        </mxCell>
        <mxCell id="xpAPB1XYYAG37ajHW2r_-256" value="열차 교통 신호 관리" style="whiteSpace=wrap;html=1;rounded=0;" parent="WIyWlLk6GJQsqaUBKTNV-1" vertex="1">
          <mxGeometry x="-1425" y="150" width="120" height="60" as="geometry" />
        </mxCell>
        <mxCell id="xpAPB1XYYAG37ajHW2r_-260" value="(서브 이벤트)" style="shape=process;whiteSpace=wrap;html=1;backgroundOutline=1;" parent="WIyWlLk6GJQsqaUBKTNV-1" vertex="1">
          <mxGeometry x="1040" y="30" width="120" height="60" as="geometry" />
        </mxCell>
        <mxCell id="xpAPB1XYYAG37ajHW2r_-262" value="" style="edgeStyle=orthogonalEdgeStyle;rounded=0;orthogonalLoop=1;jettySize=auto;html=1;" parent="WIyWlLk6GJQsqaUBKTNV-1" source="xpAPB1XYYAG37ajHW2r_-261" target="xpAPB1XYYAG37ajHW2r_-256" edge="1">
          <mxGeometry relative="1" as="geometry" />
        </mxCell>
        <mxCell id="xpAPB1XYYAG37ajHW2r_-261" value="(메인 이벤트)" style="shape=process;whiteSpace=wrap;html=1;backgroundOutline=1;" parent="WIyWlLk6GJQsqaUBKTNV-1" vertex="1">
          <mxGeometry x="-1425" y="20" width="120" height="60" as="geometry" />
        </mxCell>
        <mxCell id="xpAPB1XYYAG37ajHW2r_-308" style="edgeStyle=orthogonalEdgeStyle;rounded=0;orthogonalLoop=1;jettySize=auto;html=1;exitX=0.5;exitY=0;exitDx=0;exitDy=0;entryX=1;entryY=0.5;entryDx=0;entryDy=0;" parent="WIyWlLk6GJQsqaUBKTNV-1" source="xpAPB1XYYAG37ajHW2r_-263" target="xpAPB1XYYAG37ajHW2r_-192" edge="1">
          <mxGeometry relative="1" as="geometry" />
        </mxCell>
        <mxCell id="xpAPB1XYYAG37ajHW2r_-263" value="(메인 이벤트)" style="shape=process;whiteSpace=wrap;html=1;backgroundOutline=1;" parent="WIyWlLk6GJQsqaUBKTNV-1" vertex="1">
          <mxGeometry x="-340" y="1360" width="120" height="60" as="geometry" />
        </mxCell>
        <mxCell id="xpAPB1XYYAG37ajHW2r_-269" value="" style="edgeStyle=orthogonalEdgeStyle;rounded=0;orthogonalLoop=1;jettySize=auto;html=1;" parent="WIyWlLk6GJQsqaUBKTNV-1" source="xpAPB1XYYAG37ajHW2r_-268" target="xpAPB1XYYAG37ajHW2r_-73" edge="1">
          <mxGeometry relative="1" as="geometry" />
        </mxCell>
        <mxCell id="xpAPB1XYYAG37ajHW2r_-268" value="(신대부 이벤트)" style="shape=process;whiteSpace=wrap;html=1;backgroundOutline=1;" parent="WIyWlLk6GJQsqaUBKTNV-1" vertex="1">
          <mxGeometry x="190" y="65" width="120" height="60" as="geometry" />
        </mxCell>
        <mxCell id="xpAPB1XYYAG37ajHW2r_-303" style="edgeStyle=orthogonalEdgeStyle;rounded=0;orthogonalLoop=1;jettySize=auto;html=1;exitX=0.5;exitY=0;exitDx=0;exitDy=0;" parent="WIyWlLk6GJQsqaUBKTNV-1" source="xpAPB1XYYAG37ajHW2r_-278" target="xpAPB1XYYAG37ajHW2r_-186" edge="1">
          <mxGeometry relative="1" as="geometry" />
        </mxCell>
        <mxCell id="xpAPB1XYYAG37ajHW2r_-278" value="수상자 체포" style="whiteSpace=wrap;html=1;rounded=0;" parent="WIyWlLk6GJQsqaUBKTNV-1" vertex="1">
          <mxGeometry x="-1225" y="850" width="120" height="60" as="geometry" />
        </mxCell>
        <mxCell id="xpAPB1XYYAG37ajHW2r_-289" value="" style="edgeStyle=orthogonalEdgeStyle;rounded=0;orthogonalLoop=1;jettySize=auto;html=1;" parent="WIyWlLk6GJQsqaUBKTNV-1" source="xpAPB1XYYAG37ajHW2r_-285" target="xpAPB1XYYAG37ajHW2r_-287" edge="1">
          <mxGeometry relative="1" as="geometry" />
        </mxCell>
        <mxCell id="xpAPB1XYYAG37ajHW2r_-299" style="edgeStyle=orthogonalEdgeStyle;rounded=0;orthogonalLoop=1;jettySize=auto;html=1;exitX=1;exitY=0.5;exitDx=0;exitDy=0;" parent="WIyWlLk6GJQsqaUBKTNV-1" source="xpAPB1XYYAG37ajHW2r_-285" target="xpAPB1XYYAG37ajHW2r_-292" edge="1">
          <mxGeometry relative="1" as="geometry" />
        </mxCell>
        <mxCell id="xpAPB1XYYAG37ajHW2r_-285" value="&lt;div&gt;신대부가&amp;nbsp;&lt;/div&gt;&lt;div&gt;접촉하였는가?&lt;/div&gt;" style="rhombus;whiteSpace=wrap;html=1;rounded=0;" parent="WIyWlLk6GJQsqaUBKTNV-1" vertex="1">
          <mxGeometry x="-1430" y="955" width="130" height="130" as="geometry" />
        </mxCell>
        <mxCell id="xpAPB1XYYAG37ajHW2r_-301" style="edgeStyle=orthogonalEdgeStyle;rounded=0;orthogonalLoop=1;jettySize=auto;html=1;exitX=1;exitY=0.5;exitDx=0;exitDy=0;" parent="WIyWlLk6GJQsqaUBKTNV-1" source="xpAPB1XYYAG37ajHW2r_-287" target="xpAPB1XYYAG37ajHW2r_-292" edge="1">
          <mxGeometry relative="1" as="geometry" />
        </mxCell>
        <mxCell id="xpAPB1XYYAG37ajHW2r_-287" value="(신대부 이벤트)" style="shape=process;whiteSpace=wrap;html=1;backgroundOutline=1;" parent="WIyWlLk6GJQsqaUBKTNV-1" vertex="1">
          <mxGeometry x="-1425" y="1190" width="120" height="60" as="geometry" />
        </mxCell>
        <mxCell id="xpAPB1XYYAG37ajHW2r_-302" style="edgeStyle=orthogonalEdgeStyle;rounded=0;orthogonalLoop=1;jettySize=auto;html=1;exitX=0.5;exitY=0;exitDx=0;exitDy=0;" parent="WIyWlLk6GJQsqaUBKTNV-1" source="xpAPB1XYYAG37ajHW2r_-292" target="xpAPB1XYYAG37ajHW2r_-278" edge="1">
          <mxGeometry relative="1" as="geometry" />
        </mxCell>
        <mxCell id="xpAPB1XYYAG37ajHW2r_-304" style="edgeStyle=orthogonalEdgeStyle;rounded=0;orthogonalLoop=1;jettySize=auto;html=1;exitX=1;exitY=0.5;exitDx=0;exitDy=0;entryX=1;entryY=0.5;entryDx=0;entryDy=0;" parent="WIyWlLk6GJQsqaUBKTNV-1" source="xpAPB1XYYAG37ajHW2r_-292" target="xpAPB1XYYAG37ajHW2r_-186" edge="1">
          <mxGeometry relative="1" as="geometry">
            <Array as="points">
              <mxPoint x="-1005" y="1020" />
              <mxPoint x="-1005" y="760" />
            </Array>
          </mxGeometry>
        </mxCell>
        <mxCell id="xpAPB1XYYAG37ajHW2r_-292" value="&lt;div&gt;수상자 체포를&lt;/div&gt;&lt;div&gt;&amp;nbsp;승인했는가?&lt;/div&gt;" style="rhombus;whiteSpace=wrap;html=1;rounded=0;" parent="WIyWlLk6GJQsqaUBKTNV-1" vertex="1">
          <mxGeometry x="-1235" y="960" width="140" height="120" as="geometry" />
        </mxCell>
        <mxCell id="xpAPB1XYYAG37ajHW2r_-311" value="No" style="text;html=1;align=center;verticalAlign=middle;resizable=0;points=[];autosize=1;strokeColor=none;fillColor=none;" parent="WIyWlLk6GJQsqaUBKTNV-1" vertex="1">
          <mxGeometry x="-390" y="1358" width="40" height="30" as="geometry" />
        </mxCell>
        <mxCell id="xpAPB1XYYAG37ajHW2r_-312" value="Yes" style="text;html=1;align=center;verticalAlign=middle;resizable=0;points=[];autosize=1;strokeColor=none;fillColor=none;" parent="WIyWlLk6GJQsqaUBKTNV-1" vertex="1">
          <mxGeometry x="-500" y="1508" width="40" height="30" as="geometry" />
        </mxCell>
        <mxCell id="xpAPB1XYYAG37ajHW2r_-313" value="No" style="text;html=1;align=center;verticalAlign=middle;resizable=0;points=[];autosize=1;strokeColor=none;fillColor=none;" parent="WIyWlLk6GJQsqaUBKTNV-1" vertex="1">
          <mxGeometry x="-500" y="1158" width="40" height="30" as="geometry" />
        </mxCell>
        <mxCell id="xpAPB1XYYAG37ajHW2r_-314" value="Yes" style="text;html=1;align=center;verticalAlign=middle;resizable=0;points=[];autosize=1;strokeColor=none;fillColor=none;" parent="WIyWlLk6GJQsqaUBKTNV-1" vertex="1">
          <mxGeometry x="-660" y="1020" width="40" height="30" as="geometry" />
        </mxCell>
        <mxCell id="xpAPB1XYYAG37ajHW2r_-315" value="No" style="text;html=1;align=center;verticalAlign=middle;resizable=0;points=[];autosize=1;strokeColor=none;fillColor=none;" parent="WIyWlLk6GJQsqaUBKTNV-1" vertex="1">
          <mxGeometry x="-1275" y="278" width="40" height="30" as="geometry" />
        </mxCell>
        <mxCell id="xpAPB1XYYAG37ajHW2r_-316" value="Yes" style="text;html=1;align=center;verticalAlign=middle;resizable=0;points=[];autosize=1;strokeColor=none;fillColor=none;" parent="WIyWlLk6GJQsqaUBKTNV-1" vertex="1">
          <mxGeometry x="-1355" y="408" width="40" height="30" as="geometry" />
        </mxCell>
        <mxCell id="xpAPB1XYYAG37ajHW2r_-317" value="No" style="text;html=1;align=center;verticalAlign=middle;resizable=0;points=[];autosize=1;strokeColor=none;fillColor=none;" parent="WIyWlLk6GJQsqaUBKTNV-1" vertex="1">
          <mxGeometry x="-1275" y="728" width="40" height="30" as="geometry" />
        </mxCell>
        <mxCell id="xpAPB1XYYAG37ajHW2r_-318" value="Yes" style="text;html=1;align=center;verticalAlign=middle;resizable=0;points=[];autosize=1;strokeColor=none;fillColor=none;" parent="WIyWlLk6GJQsqaUBKTNV-1" vertex="1">
          <mxGeometry x="-1355" y="910" width="40" height="30" as="geometry" />
        </mxCell>
        <mxCell id="xpAPB1XYYAG37ajHW2r_-319" value="Yes" style="text;html=1;align=center;verticalAlign=middle;resizable=0;points=[];autosize=1;strokeColor=none;fillColor=none;" parent="WIyWlLk6GJQsqaUBKTNV-1" vertex="1">
          <mxGeometry x="-1355" y="1140" width="40" height="30" as="geometry" />
        </mxCell>
        <mxCell id="xpAPB1XYYAG37ajHW2r_-320" value="No" style="text;html=1;align=center;verticalAlign=middle;resizable=0;points=[];autosize=1;strokeColor=none;fillColor=none;" parent="WIyWlLk6GJQsqaUBKTNV-1" vertex="1">
          <mxGeometry x="-1075" y="980" width="40" height="30" as="geometry" />
        </mxCell>
        <mxCell id="xpAPB1XYYAG37ajHW2r_-321" value="No" style="text;html=1;align=center;verticalAlign=middle;resizable=0;points=[];autosize=1;strokeColor=none;fillColor=none;" parent="WIyWlLk6GJQsqaUBKTNV-1" vertex="1">
          <mxGeometry x="-1285" y="980" width="40" height="30" as="geometry" />
        </mxCell>
        <mxCell id="xpAPB1XYYAG37ajHW2r_-322" value="Yes" style="text;html=1;align=center;verticalAlign=middle;resizable=0;points=[];autosize=1;strokeColor=none;fillColor=none;" parent="WIyWlLk6GJQsqaUBKTNV-1" vertex="1">
          <mxGeometry x="-1165" y="918" width="40" height="30" as="geometry" />
        </mxCell>
        <mxCell id="xpAPB1XYYAG37ajHW2r_-324" value="Yes" style="text;html=1;align=center;verticalAlign=middle;resizable=0;points=[];autosize=1;strokeColor=none;fillColor=none;" parent="WIyWlLk6GJQsqaUBKTNV-1" vertex="1">
          <mxGeometry x="-490" y="368" width="40" height="30" as="geometry" />
        </mxCell>
        <mxCell id="xpAPB1XYYAG37ajHW2r_-325" value="No" style="text;html=1;align=center;verticalAlign=middle;resizable=0;points=[];autosize=1;strokeColor=none;fillColor=none;" parent="WIyWlLk6GJQsqaUBKTNV-1" vertex="1">
          <mxGeometry x="-413.5" y="260" width="40" height="30" as="geometry" />
        </mxCell>
        <mxCell id="C3fp1-QE952OWo8Mgcm4-12" value="Yes" style="text;strokeColor=none;fillColor=none;html=1;align=center;verticalAlign=middle;whiteSpace=wrap;rounded=0;fontSize=16;" vertex="1" parent="WIyWlLk6GJQsqaUBKTNV-1">
          <mxGeometry x="270" y="438" width="30" height="20" as="geometry" />
        </mxCell>
        <mxCell id="C3fp1-QE952OWo8Mgcm4-31" value="" style="edgeStyle=none;curved=1;rounded=0;orthogonalLoop=1;jettySize=auto;html=1;fontSize=12;startSize=8;endSize=8;" edge="1" parent="WIyWlLk6GJQsqaUBKTNV-1" source="C3fp1-QE952OWo8Mgcm4-13" target="xpAPB1XYYAG37ajHW2r_-97">
          <mxGeometry relative="1" as="geometry" />
        </mxCell>
        <mxCell id="C3fp1-QE952OWo8Mgcm4-32" value="" style="edgeStyle=none;curved=1;rounded=0;orthogonalLoop=1;jettySize=auto;html=1;fontSize=12;startSize=8;endSize=8;" edge="1" parent="WIyWlLk6GJQsqaUBKTNV-1" source="C3fp1-QE952OWo8Mgcm4-13" target="C3fp1-QE952OWo8Mgcm4-28">
          <mxGeometry relative="1" as="geometry" />
        </mxCell>
        <mxCell id="C3fp1-QE952OWo8Mgcm4-13" value="달성률이&amp;nbsp;&lt;div&gt;50% 이상인가?&lt;/div&gt;" style="rhombus;whiteSpace=wrap;html=1;" vertex="1" parent="WIyWlLk6GJQsqaUBKTNV-1">
          <mxGeometry x="186.5" y="470" width="129" height="120" as="geometry" />
        </mxCell>
        <mxCell id="C3fp1-QE952OWo8Mgcm4-20" value="Yes" style="text;strokeColor=none;fillColor=none;html=1;align=center;verticalAlign=middle;whiteSpace=wrap;rounded=0;fontSize=16;" vertex="1" parent="WIyWlLk6GJQsqaUBKTNV-1">
          <mxGeometry x="270" y="1240" width="30" height="20" as="geometry" />
        </mxCell>
        <mxCell id="C3fp1-QE952OWo8Mgcm4-21" value="Yes" style="text;strokeColor=none;fillColor=none;html=1;align=center;verticalAlign=middle;whiteSpace=wrap;rounded=0;fontSize=16;" vertex="1" parent="WIyWlLk6GJQsqaUBKTNV-1">
          <mxGeometry x="540" y="650" width="30" height="20" as="geometry" />
        </mxCell>
        <mxCell id="C3fp1-QE952OWo8Mgcm4-22" value="No" style="text;strokeColor=none;fillColor=none;html=1;align=center;verticalAlign=middle;whiteSpace=wrap;rounded=0;fontSize=16;" vertex="1" parent="WIyWlLk6GJQsqaUBKTNV-1">
          <mxGeometry x="650" y="490" width="30" height="25" as="geometry" />
        </mxCell>
        <mxCell id="C3fp1-QE952OWo8Mgcm4-23" value="Yes" style="text;strokeColor=none;fillColor=none;html=1;align=center;verticalAlign=middle;whiteSpace=wrap;rounded=0;fontSize=16;" vertex="1" parent="WIyWlLk6GJQsqaUBKTNV-1">
          <mxGeometry x="800" y="680" width="40" height="20" as="geometry" />
        </mxCell>
        <mxCell id="C3fp1-QE952OWo8Mgcm4-24" value="No" style="text;strokeColor=none;fillColor=none;html=1;align=center;verticalAlign=middle;whiteSpace=wrap;rounded=0;fontSize=16;" vertex="1" parent="WIyWlLk6GJQsqaUBKTNV-1">
          <mxGeometry x="930" y="500" width="30" as="geometry" />
        </mxCell>
        <mxCell id="C3fp1-QE952OWo8Mgcm4-25" value="" style="ellipse;shape=cloud;whiteSpace=wrap;html=1;rounded=0;" vertex="1" parent="WIyWlLk6GJQsqaUBKTNV-1">
          <mxGeometry x="444" y="290" width="120" height="80" as="geometry" />
        </mxCell>
        <mxCell id="C3fp1-QE952OWo8Mgcm4-27" value="No" style="text;strokeColor=none;fillColor=none;html=1;align=center;verticalAlign=middle;whiteSpace=wrap;rounded=0;fontSize=16;" vertex="1" parent="WIyWlLk6GJQsqaUBKTNV-1">
          <mxGeometry x="400" y="287.5" width="30" height="25" as="geometry" />
        </mxCell>
        <mxCell id="C3fp1-QE952OWo8Mgcm4-34" value="" style="edgeStyle=none;curved=1;rounded=0;orthogonalLoop=1;jettySize=auto;html=1;fontSize=12;startSize=8;endSize=8;" edge="1" parent="WIyWlLk6GJQsqaUBKTNV-1" source="C3fp1-QE952OWo8Mgcm4-28" target="xpAPB1XYYAG37ajHW2r_-124">
          <mxGeometry relative="1" as="geometry" />
        </mxCell>
        <mxCell id="C3fp1-QE952OWo8Mgcm4-40" value="" style="edgeStyle=none;curved=1;rounded=0;orthogonalLoop=1;jettySize=auto;html=1;fontSize=12;startSize=8;endSize=8;" edge="1" parent="WIyWlLk6GJQsqaUBKTNV-1" source="C3fp1-QE952OWo8Mgcm4-28" target="C3fp1-QE952OWo8Mgcm4-39">
          <mxGeometry relative="1" as="geometry" />
        </mxCell>
        <mxCell id="C3fp1-QE952OWo8Mgcm4-28" value="마지막까지&amp;nbsp;&lt;div&gt;신대부 상징물을&amp;nbsp;&lt;/div&gt;&lt;div&gt;숨겼는가?&lt;br&gt;&lt;/div&gt;" style="rhombus;whiteSpace=wrap;html=1;" vertex="1" parent="WIyWlLk6GJQsqaUBKTNV-1">
          <mxGeometry x="186.5" y="1010" width="129" height="120" as="geometry" />
        </mxCell>
        <mxCell id="C3fp1-QE952OWo8Mgcm4-33" value="No" style="text;strokeColor=none;fillColor=none;html=1;align=center;verticalAlign=middle;whiteSpace=wrap;rounded=0;fontSize=16;" vertex="1" parent="WIyWlLk6GJQsqaUBKTNV-1">
          <mxGeometry x="400" y="490" width="30" height="25" as="geometry" />
        </mxCell>
        <mxCell id="C3fp1-QE952OWo8Mgcm4-35" value="Yes" style="text;strokeColor=none;fillColor=none;html=1;align=center;verticalAlign=middle;whiteSpace=wrap;rounded=0;fontSize=16;" vertex="1" parent="WIyWlLk6GJQsqaUBKTNV-1">
          <mxGeometry x="270" y="948" width="30" height="25" as="geometry" />
        </mxCell>
        <mxCell id="C3fp1-QE952OWo8Mgcm4-38" value="No" style="text;strokeColor=none;fillColor=none;html=1;align=center;verticalAlign=middle;whiteSpace=wrap;rounded=0;fontSize=16;" vertex="1" parent="WIyWlLk6GJQsqaUBKTNV-1">
          <mxGeometry x="360" y="1030" width="30" height="25" as="geometry" />
        </mxCell>
        <mxCell id="C3fp1-QE952OWo8Mgcm4-42" value="" style="edgeStyle=none;curved=1;rounded=0;orthogonalLoop=1;jettySize=auto;html=1;fontSize=12;startSize=8;endSize=8;" edge="1" parent="WIyWlLk6GJQsqaUBKTNV-1" source="C3fp1-QE952OWo8Mgcm4-39" target="C3fp1-QE952OWo8Mgcm4-41">
          <mxGeometry relative="1" as="geometry" />
        </mxCell>
        <mxCell id="C3fp1-QE952OWo8Mgcm4-47" value="" style="edgeStyle=none;curved=1;rounded=0;orthogonalLoop=1;jettySize=auto;html=1;fontSize=12;startSize=8;endSize=8;" edge="1" parent="WIyWlLk6GJQsqaUBKTNV-1" source="C3fp1-QE952OWo8Mgcm4-39" target="C3fp1-QE952OWo8Mgcm4-46">
          <mxGeometry relative="1" as="geometry" />
        </mxCell>
        <mxCell id="C3fp1-QE952OWo8Mgcm4-39" value="신대부의&amp;nbsp;&lt;div&gt;이리역 폭파 테러 시행일에&amp;nbsp;&lt;/div&gt;&lt;div&gt;곧장 퇴근하는가?&lt;/div&gt;" style="rhombus;whiteSpace=wrap;html=1;" vertex="1" parent="WIyWlLk6GJQsqaUBKTNV-1">
          <mxGeometry x="400" y="987.5" width="170" height="165" as="geometry" />
        </mxCell>
        <mxCell id="C3fp1-QE952OWo8Mgcm4-41" value="엔딩: &quot;자유롭고 정의로운 대한&quot;" style="ellipse;whiteSpace=wrap;html=1;" vertex="1" parent="WIyWlLk6GJQsqaUBKTNV-1">
          <mxGeometry x="425" y="1273" width="120" height="85" as="geometry" />
        </mxCell>
        <mxCell id="C3fp1-QE952OWo8Mgcm4-43" value="Yes" style="text;strokeColor=none;fillColor=none;html=1;align=center;verticalAlign=middle;whiteSpace=wrap;rounded=0;fontSize=16;" vertex="1" parent="WIyWlLk6GJQsqaUBKTNV-1">
          <mxGeometry x="510" y="1225" width="30" height="25" as="geometry" />
        </mxCell>
        <mxCell id="C3fp1-QE952OWo8Mgcm4-49" value="" style="edgeStyle=none;curved=1;rounded=0;orthogonalLoop=1;jettySize=auto;html=1;fontSize=12;startSize=8;endSize=8;" edge="1" parent="WIyWlLk6GJQsqaUBKTNV-1" source="C3fp1-QE952OWo8Mgcm4-46" target="C3fp1-QE952OWo8Mgcm4-48">
          <mxGeometry relative="1" as="geometry" />
        </mxCell>
        <mxCell id="C3fp1-QE952OWo8Mgcm4-51" value="" style="edgeStyle=none;curved=1;rounded=0;orthogonalLoop=1;jettySize=auto;html=1;fontSize=12;startSize=8;endSize=8;" edge="1" parent="WIyWlLk6GJQsqaUBKTNV-1" source="C3fp1-QE952OWo8Mgcm4-46" target="C3fp1-QE952OWo8Mgcm4-50">
          <mxGeometry relative="1" as="geometry" />
        </mxCell>
        <mxCell id="C3fp1-QE952OWo8Mgcm4-46" value="폭탄 테러 저지에&lt;div&gt;성공하는가?&lt;/div&gt;" style="rhombus;whiteSpace=wrap;html=1;" vertex="1" parent="WIyWlLk6GJQsqaUBKTNV-1">
          <mxGeometry x="640" y="1020" width="130" height="100" as="geometry" />
        </mxCell>
        <mxCell id="C3fp1-QE952OWo8Mgcm4-48" value="엔딩: &quot;이 한 몸 불살라&quot;" style="ellipse;whiteSpace=wrap;html=1;" vertex="1" parent="WIyWlLk6GJQsqaUBKTNV-1">
          <mxGeometry x="640" y="1280" width="120" height="80" as="geometry" />
        </mxCell>
        <mxCell id="C3fp1-QE952OWo8Mgcm4-50" value="엔딩: &quot;사망&quot;" style="ellipse;whiteSpace=wrap;html=1;" vertex="1" parent="WIyWlLk6GJQsqaUBKTNV-1">
          <mxGeometry x="827" y="1030" width="120" height="80" as="geometry" />
        </mxCell>
        <mxCell id="C3fp1-QE952OWo8Mgcm4-54" value="No" style="text;strokeColor=none;fillColor=none;html=1;align=center;verticalAlign=middle;whiteSpace=wrap;rounded=0;fontSize=16;" vertex="1" parent="WIyWlLk6GJQsqaUBKTNV-1">
          <mxGeometry x="600" y="1030" width="30" height="25" as="geometry" />
        </mxCell>
        <mxCell id="C3fp1-QE952OWo8Mgcm4-55" value="No" style="text;strokeColor=none;fillColor=none;html=1;align=center;verticalAlign=middle;whiteSpace=wrap;rounded=0;fontSize=16;" vertex="1" parent="WIyWlLk6GJQsqaUBKTNV-1">
          <mxGeometry x="780" y="1030" width="30" height="25" as="geometry" />
        </mxCell>
        <mxCell id="C3fp1-QE952OWo8Mgcm4-56" value="Yes" style="text;strokeColor=none;fillColor=none;html=1;align=center;verticalAlign=middle;whiteSpace=wrap;rounded=0;fontSize=16;" vertex="1" parent="WIyWlLk6GJQsqaUBKTNV-1">
          <mxGeometry x="725" y="1225" width="30" height="15" as="geometry" />
        </mxCell>
        <mxCell id="C3fp1-QE952OWo8Mgcm4-57" value="엔딩: &quot;가부장&quot;" style="ellipse;whiteSpace=wrap;html=1;" vertex="1" parent="WIyWlLk6GJQsqaUBKTNV-1">
          <mxGeometry x="870" y="140" width="120" height="80" as="geometry" />
        </mxCell>
      </root>
    </mxGraphModel>
  </diagram>
</mxfile>
